<?xml version="1.0" encoding="utf-8"?>
<!-- Svg Vector Icons : http://www.onlinewebfonts.com/icon -->
<!DOCTYPE svg PUBLIC "-//W3C//DTD SVG 1.1//EN" "http://www.w3.org/Graphics/SVG/1.1/DTD/svg11.dtd">
<svg version="1.1" xmlns="http://www.w3.org/2000/svg" xmlns:xlink="http://www.w3.org/1999/xlink" x="0px" y="0px" viewBox="0 0 1000 1000" enable-background="new 0 0 1000 1000" xml:space="preserve">
<metadata> Svg Vector Icons : http://www.onlinewebfonts.com/icon </metadata>
<g><path d="M898.1,10H101.9C51.3,10,10,51.3,10,101.9v796.3c0,50.5,41.3,91.9,91.9,91.9h796.3c50.5,0,91.9-41.3,91.9-91.9V101.9C990,51.3,948.7,10,898.1,10z M377.5,806.3H255V377.5h122.5V806.3z M316.3,316.3c-33.9,0-61.3-27.4-61.3-61.3s27.4-61.3,61.3-61.3s61.3,27.4,61.3,61.3S350.1,316.3,316.3,316.3z M806.3,806.3H683.8v-245c0-33.9-27.4-61.3-61.3-61.3s-61.3,27.4-61.3,61.3v245H438.8V377.5h122.5v76c25.3-34.6,63.9-76,107.2-76c76.2,0,137.8,68.5,137.8,153.1V806.3z"/></g>
</svg>